<?xml version="1.0" encoding="UTF-8" standalone="no"?>
<!DOCTYPE svg PUBLIC "-//W3C//DTD SVG 1.1//EN" "http://www.w3.org/Graphics/SVG/1.1/DTD/svg11.dtd">
<svg width="100%" height="100%" viewBox="0 0 350 350" version="1.1" xmlns="http://www.w3.org/2000/svg" xmlns:xlink="http://www.w3.org/1999/xlink" xml:space="preserve" xmlns:serif="http://www.serif.com/" style="fill-rule:evenodd;clip-rule:evenodd;stroke-linejoin:round;stroke-miterlimit:2;">
    <g transform="matrix(19.022,0,0,19.022,3.80225,-110.329)">
        <path d="M17.4,19.097L17.4,19.8C17.4,20.118 17.273,20.424 17.049,20.648C16.824,20.874 16.518,21 16.2,21L1.8,21C1.482,21 1.176,20.874 0.951,20.648C0.726,20.424 0.6,20.118 0.6,19.8L0.6,19.097C0.6,18.939 0.631,18.783 0.691,18.638C0.752,18.492 0.84,18.36 0.951,18.249L2.011,17.188C2.134,17.066 2.213,16.907 2.238,16.736L3.065,10.948C3.269,9.519 3.981,8.212 5.072,7.266C6.162,6.321 7.557,5.8 9,5.8C10.443,5.8 11.838,6.321 12.928,7.266C14.019,8.212 14.731,9.519 14.935,10.948L15.762,16.736C15.787,16.907 15.866,17.066 15.989,17.189L17.049,18.249C17.273,18.474 17.4,18.779 17.4,19.097ZM11.8,21.8L6.2,21.8C6.303,22.468 6.643,23.078 7.156,23.518C7.67,23.958 8.324,24.2 9,24.2C9.676,24.2 10.33,23.958 10.844,23.518C11.357,23.078 11.697,22.468 11.8,21.8Z" style="fill:white;fill-rule:nonzero;"/>
    </g>
</svg>
