<svg width="100%" height="100%" viewBox="0 0 350 350" version="1.1" xmlns="http://www.w3.org/2000/svg" xmlns:xlink="http://www.w3.org/1999/xlink" xml:space="preserve" xmlns:serif="http://www.serif.com/" style="fill-rule:evenodd;clip-rule:evenodd;stroke-linejoin:round;stroke-miterlimit:2;">
    <g transform="matrix(1.03245,0,0,1.03245,-3.97587,-11.3569)">
        <g transform="matrix(9.4209,0,0,9.4209,21.8959,10.1674)">
            <path d="M24.623,7.828C23.526,7.424 22.349,7.166 21.108,7.118C19.06,7.021 17.109,7.473 15.399,8.344C15.303,8.393 15.19,8.441 15.077,8.506L15.077,14.38C15.077,14.461 15.077,14.768 15.028,15.026C14.916,15.623 14.561,16.156 14.061,16.495C13.642,16.785 13.158,16.914 12.642,16.898C12.545,16.898 12.432,16.882 12.336,16.866C12.078,16.818 11.804,16.721 11.723,16.688C11.497,16.608 8.208,15.333 6.627,14.719C6.434,14.639 6.273,14.574 6.144,14.526C4.257,16.124 2.274,18.028 0.419,20.271C0.403,20.288 0.323,20.384 0.306,20.401C0.065,20.74 0.048,21.224 0.306,21.595C0.5,21.869 0.806,22.031 1.113,22.047C1.322,22.063 1.548,21.998 1.742,21.869C1.758,21.853 1.774,21.837 1.806,21.821C3.773,20.401 5.934,19.255 8.224,18.335C8.385,18.254 8.579,18.206 8.756,18.222C9.014,18.238 9.256,18.335 9.449,18.528C9.82,18.9 9.836,19.497 9.53,19.9C9.401,20.094 9.288,20.288 9.175,20.481C7.95,22.483 6.966,24.661 6.224,26.937C6.208,27.002 6.192,27.05 6.176,27.115L6.176,27.131C6.111,27.405 6.16,27.696 6.337,27.938C6.531,28.212 6.837,28.374 7.16,28.39C7.385,28.406 7.595,28.341 7.788,28.212C7.869,28.148 7.95,28.083 8.014,28.002C8.03,27.97 8.063,27.938 8.079,27.906C8.885,26.76 9.772,25.678 10.723,24.677C14.964,20.126 20.592,16.914 26.897,15.656C26.945,15.639 26.993,15.639 27.042,15.639C27.396,15.656 27.671,15.962 27.654,16.317C27.638,16.624 27.429,16.85 27.138,16.914C21.285,18.157 10.739,25.113 14.432,35.217C14.496,35.378 14.545,35.475 14.625,35.62C14.819,35.895 15.125,36.056 15.432,36.072C15.609,36.072 16.109,36.024 16.415,35.475C17.012,34.345 18.141,33.086 21.398,31.731C30.476,27.97 31.976,22.596 32.137,19.19L32.137,18.996C32.282,13.929 29.138,9.506 24.623,7.828ZM15.512,34.458C14.674,31.956 14.754,29.536 15.738,27.228C17.625,30.278 20.914,30.536 20.914,30.536C17.544,31.94 16.222,33.328 15.512,34.458Z" style="fill:rgb(255,111,85);"/>
        </g>
        <g transform="matrix(9.4209,0,0,9.4209,21.8959,10.1674)">
            <path d="M0.177,8.165C0.193,8.198 0.226,8.23 0.242,8.246C1.096,9.408 2.064,10.425 3.112,11.329C3.128,11.345 3.144,11.345 3.144,11.361C3.821,11.942 5.111,12.781 6.047,13.12C6.047,13.12 11.868,15.364 12.174,15.493C12.287,15.541 12.448,15.589 12.529,15.606C12.787,15.654 13.061,15.606 13.303,15.444C13.545,15.283 13.69,15.041 13.738,14.783C13.755,14.686 13.771,14.524 13.771,14.411L13.771,7.826C13.787,6.826 13.464,5.309 13.174,4.469C13.174,4.453 13.158,4.437 13.158,4.421C12.706,3.114 12.094,1.839 11.32,0.628L11.271,0.531L11.255,0.515C10.933,0.063 10.288,-0.05 9.82,0.273C9.739,0.321 9.691,0.386 9.626,0.45C9.578,0.515 9.546,0.563 9.497,0.628C8.465,2.129 8.046,3.953 8.32,5.744C7.788,6.019 7.224,6.39 7.159,6.438C7.095,6.487 6.53,6.874 6.095,7.278C4.531,6.39 2.66,6.116 0.903,6.535C0.838,6.551 0.758,6.567 0.693,6.584C0.613,6.616 0.532,6.648 0.467,6.697C-0,7.019 -0.129,7.649 0.177,8.133L0.177,8.165ZM10.417,1.693C10.965,2.613 11.432,3.565 11.803,4.566C11.062,4.695 10.336,4.889 9.626,5.147C9.53,3.937 9.804,2.742 10.417,1.693ZM5.079,8.278C4.563,8.843 4.128,9.456 3.741,10.102C2.951,9.408 2.225,8.617 1.564,7.778C2.773,7.568 3.983,7.746 5.079,8.278Z" style="fill:rgb(255,111,85);"/>
        </g>
    </g>
</svg>
