<svg width="129" height="37" viewBox="0 0 129 37" fill="none" xmlns="http://www.w3.org/2000/svg">
<g clip-path="url(#clip0)">
<path fill-rule="evenodd" clip-rule="evenodd" d="M126.678 7.06915C125.227 7.06915 124.356 8.10209 124.356 9.39327V22.7892C124.356 24.6291 123.243 26.114 121.034 26.114C118.841 26.114 117.713 24.6291 117.713 22.7892V9.39327C117.713 8.11823 116.842 7.06915 115.391 7.06915C113.939 7.06915 113.069 8.10209 113.069 9.39327V22.8053H113.085C113.246 26.9694 115.939 30.278 121.034 30.278C126.13 30.278 128.807 26.9694 128.984 22.8053H129V9.39327C129 8.11823 128.129 7.06915 126.678 7.06915ZM105.828 19.0771C104.184 17.4147 100.459 15.8169 99.4913 14.6548C98.8947 13.9931 98.814 12.9763 99.3462 12.2177C99.6687 11.7658 100.152 11.4914 100.652 11.3946C101.555 11.2332 102.474 11.3623 103.2 11.6528C104.151 12.024 104.845 12.5728 105.587 12.6212C106.264 12.6696 106.957 12.3791 107.393 11.7658C107.941 10.975 107.844 9.90974 107.215 9.23187C105.425 7.08529 101.749 6.87548 99.9428 7.16599C98.169 7.45651 96.4598 8.32805 95.3955 9.84518C93.6379 12.3468 93.9765 15.7039 95.9599 17.8666C97.4595 19.5774 99.7332 20.4489 101.475 21.5626C101.846 21.8047 102.313 22.1436 102.555 22.4018C103.297 23.1604 103.41 24.3547 102.797 25.2424C102.474 25.6943 102.023 25.9848 101.539 26.114C101.088 26.2431 100.523 26.2754 100.185 26.2592C98.685 26.2269 97.1048 25.194 96.6533 25.0003C95.8148 24.6291 94.7989 24.8874 94.2507 25.6782C93.783 26.3399 93.7992 27.163 94.17 27.8248C94.3958 28.2283 94.815 28.7125 95.3633 29.0675C98.0723 30.8752 101.249 30.5685 103.039 30.1005C104.474 29.7131 105.828 28.9384 106.748 27.5665C108.602 24.8874 108.167 21.2559 105.828 19.0771ZM88.7198 7.39195H76.7067C75.5457 7.39195 74.5943 8.06981 74.5943 9.50624C74.5943 10.9427 75.5457 11.6205 76.7067 11.6205H80.4154V27.9539C80.4154 29.2289 81.1572 30.278 82.7374 30.278C84.3015 30.278 85.0594 29.2451 85.0594 27.9539V11.6205H88.7198C89.8808 11.6205 90.8322 10.9427 90.8322 9.50624C90.8322 8.08595 89.8969 7.39195 88.7198 7.39195ZM67.7895 7.06915C66.3383 7.06915 65.4675 8.10209 65.4675 9.39327V27.9539C65.4675 29.2289 66.2093 30.278 67.7895 30.278C69.3536 30.278 70.1115 29.2451 70.1115 27.9539V9.39327C70.1115 8.11823 69.2408 7.06915 67.7895 7.06915ZM59.7431 26.8887L54.6799 17.1726C58.437 12.6373 58.9853 9.95816 59.0498 9.55466C59.0659 9.44169 59.082 9.31257 59.082 9.18345C59.082 8.02139 58.1468 7.08529 56.9858 7.08529C56.1795 7.08529 55.4861 7.55334 55.0669 8.19893C54.6638 8.84452 53.922 10.6199 51.7129 13.7026C50.3745 15.5586 48.9071 17.0758 48.375 17.6084V9.40941C48.375 8.13437 47.5043 7.08529 46.053 7.08529C44.6018 7.08529 43.731 8.11823 43.731 9.40941V27.97C43.731 29.2451 44.4728 30.2941 46.053 30.2941C47.6171 30.2941 48.375 29.2612 48.375 27.97V23.4832C48.8749 22.999 49.9875 21.9338 51.2291 20.6426L55.599 29.0514C56.1956 30.1973 57.5179 30.5524 58.7273 30.1166C59.9528 29.6324 60.3398 28.0184 59.7431 26.8887Z" fill="#EDF0F1"/>
<path fill-rule="evenodd" clip-rule="evenodd" d="M24.6229 7.82773C23.5264 7.42424 22.3493 7.166 21.1076 7.11758C19.0598 7.02074 17.1086 7.47266 15.3994 8.3442C15.3026 8.39262 15.1898 8.44104 15.0769 8.50559V14.3804C15.0769 14.4611 15.0769 14.7678 15.0285 15.026C14.9156 15.6232 14.5609 16.1558 14.061 16.4947C13.6418 16.7852 13.158 16.9144 12.642 16.8982C12.5453 16.8982 12.4324 16.8821 12.3356 16.8659C12.0776 16.8175 11.8035 16.7207 11.7229 16.6884C11.4971 16.6077 8.20765 15.3327 6.6274 14.7194C6.4339 14.6387 6.27265 14.5741 6.14365 14.5257C4.25702 16.1235 2.27365 18.028 0.419273 20.2714C0.403148 20.2876 0.322523 20.3844 0.306398 20.4005C0.0645233 20.7395 0.0483983 21.2237 0.306398 21.5949C0.499898 21.8692 0.806273 22.0306 1.11265 22.0468C1.32227 22.0629 1.54802 21.9984 1.74152 21.8692C1.75765 21.8531 1.77377 21.837 1.80602 21.8208C3.77327 20.4005 5.93402 19.2546 8.22377 18.3347C8.38502 18.254 8.57852 18.2055 8.7559 18.2217C9.0139 18.2378 9.25577 18.3347 9.44927 18.5283C9.82015 18.8995 9.83627 19.4967 9.5299 19.9002C9.4009 20.0939 9.28802 20.2876 9.17515 20.4812C7.94965 22.4826 6.96602 24.6614 6.22427 26.9371C6.20815 27.0017 6.19202 27.0501 6.1759 27.1146V27.1308C6.1114 27.4052 6.15977 27.6957 6.33715 27.9378C6.53065 28.2121 6.83702 28.3735 7.15952 28.3897C7.38527 28.4058 7.5949 28.3413 7.7884 28.2121C7.86902 28.1476 7.94965 28.083 8.01415 28.0023C8.03027 27.97 8.06252 27.9378 8.07865 27.9055C8.8849 26.7596 9.77177 25.6782 10.7231 24.6775C14.964 20.1262 20.5916 16.9144 26.8965 15.6555C26.9449 15.6393 26.9933 15.6393 27.0416 15.6393C27.3964 15.6555 27.6705 15.9621 27.6544 16.3172C27.6383 16.6239 27.4286 16.8498 27.1384 16.9144C21.285 18.1571 10.7393 25.1133 14.4319 35.2168C14.4964 35.3782 14.5448 35.475 14.6254 35.6202C14.8189 35.8946 15.1253 36.056 15.4316 36.0722C15.609 36.0722 16.1089 36.0237 16.4153 35.475C17.0119 34.3452 18.1406 33.0863 21.3979 31.7306C30.4763 27.97 31.9759 22.5955 32.1371 19.1901V18.9964C32.2823 13.9285 29.1379 9.50625 24.6229 7.82773ZM15.5123 34.4582C14.6738 31.9565 14.7544 29.5356 15.738 27.2276C17.6246 30.278 20.9141 30.5362 20.9141 30.5362C17.544 31.9404 16.2218 33.3284 15.5123 34.4582Z" fill="#FF8D78"/>
<path fill-rule="evenodd" clip-rule="evenodd" d="M0.177228 8.16526C0.193353 8.19754 0.225603 8.22982 0.241728 8.24596C1.09635 9.40801 2.06385 10.4248 3.11198 11.3286C3.1281 11.3448 3.14423 11.3448 3.14423 11.3609C3.82148 11.9419 5.11148 12.7812 6.04673 13.1201C6.04673 13.1201 11.8679 15.3636 12.1742 15.4927C12.2871 15.5411 12.4484 15.5895 12.529 15.6056C12.787 15.6541 13.0611 15.6056 13.303 15.4443C13.5449 15.2829 13.69 15.0408 13.7384 14.7825C13.7545 14.6857 13.7706 14.5243 13.7706 14.4113V7.82633C13.7867 6.82567 13.4642 5.30854 13.174 4.46927C13.174 4.45314 13.1579 4.437 13.1579 4.42086C12.7064 3.11354 12.0936 1.83851 11.3196 0.628033L11.2712 0.531195L11.2551 0.515055C10.9326 0.0631441 10.2876 -0.0498336 9.81998 0.27296C9.73935 0.321379 9.69098 0.385938 9.62648 0.450496C9.5781 0.515055 9.54585 0.563474 9.49748 0.628033C8.46548 2.12902 8.04623 3.95281 8.32035 5.74431C7.78823 6.01868 7.22385 6.3899 7.15935 6.43832C7.09485 6.48673 6.53048 6.87409 6.0951 7.27758C4.53098 6.3899 2.66048 6.11552 0.902853 6.53515C0.838353 6.55129 0.757728 6.56743 0.693228 6.58357C0.612603 6.61585 0.531978 6.64813 0.467478 6.69655C-0.000146934 7.01934 -0.129147 7.64879 0.177228 8.13298V8.16526ZM10.4166 1.69325C10.9649 2.61321 11.4325 3.56545 11.8034 4.56611C11.0616 4.69523 10.336 4.88891 9.62648 5.14714C9.52973 3.93667 9.80385 2.74233 10.4166 1.69325ZM5.07923 8.27824C4.56323 8.84313 4.12785 9.45643 3.74085 10.102C2.95073 9.40801 2.2251 8.61717 1.56398 7.77791C2.77335 7.56809 3.98273 7.74563 5.07923 8.27824Z" fill="#FF8D78"/>
</g>
<defs>
<clipPath id="clip0">
<rect width="129" height="36.1529" fill="white"/>
</clipPath>
</defs>
</svg>